<?xml version="1.0" standalone="no"?>
<svg version="1.0" xmlns="http://www.w3.org/2000/svg"
 width="70px" height="70px" viewBox="0 0 300.000000 300.000000"
 preserveAspectRatio="xMidYMid meet">

<g transform="translate(0.000000,300.000000) scale(0.100000,-0.100000)"
fill="#ff0001" stroke="none">
<path d="M762 2749 c-237 -35 -434 -203 -519 -444 l-28 -80 -3 -705 c-3 -796
-3 -798 70 -949 52 -110 168 -229 275 -284 136 -71 182 -77 565 -77 l338 0 -2
1273 -3 1272 -315 1 c-173 1 -343 -2 -378 -7z m488 -1264 l0 -1065 -216 0
c-240 0 -296 9 -397 63 -103 54 -173 156 -202 292 -22 103 -22 1307 0 1409 41
192 144 300 330 347 55 14 115 18 278 18 l207 1 0 -1065z"/>
<path d="M776 2214 c-60 -22 -104 -60 -132 -116 -22 -44 -26 -61 -22 -124 3
-61 8 -79 33 -116 17 -23 53 -56 80 -73 42 -26 58 -30 120 -30 62 0 78 4 121
30 175 108 142 372 -54 431 -56 17 -96 17 -146 -2z"/>
<path d="M1730 1486 l0 -1276 253 0 c220 0 264 3 331 20 226 58 407 237 473
470 17 60 18 117 18 780 0 655 -1 720 -18 780 -53 192 -173 342 -343 428 -115
58 -154 64 -446 69 l-268 5 0 -1276z m610 103 c60 -27 98 -64 126 -124 44 -92
29 -204 -38 -280 -53 -60 -114 -88 -191 -87 -149 0 -258 108 -258 255 0 72 18
121 63 173 70 79 201 107 298 63z"/>
</g>
</svg>
