<?xml version="1.0" standalone="no"?>
<svg version="1.0" xmlns="http://www.w3.org/2000/svg"
 width="70px" height="70px" viewBox="0 0 1024.000000 1024.000000"
 preserveAspectRatio="xMidYMid meet">

<g transform="translate(0.000000,1024.000000) scale(0.100000,-0.100000)"
fill="#107C10" stroke="none">
<path d="M4725 10109 c-405 -26 -778 -100 -1181 -235 -324 -109 -938 -394
-923 -429 2 -6 84 -10 214 -11 365 -1 525 -26 895 -142 354 -111 636 -226
1041 -423 179 -87 336 -159 347 -159 26 0 124 42 397 172 373 178 679 302 950
385 423 130 738 178 1075 163 85 -4 156 -6 158 -5 7 6 -169 106 -303 173 -474
237 -1115 436 -1565 487 -304 34 -781 44 -1105 24z"/>
<path d="M8465 8718 c-67 -12 -151 -38 -265 -82 -305 -118 -652 -346 -1064
-700 -175 -150 -606 -544 -606 -554 0 -4 77 -104 171 -222 94 -118 224 -285
288 -370 701 -924 1447 -2156 1830 -3022 280 -635 403 -1223 326 -1568 -8 -36
-14 -73 -15 -84 0 -33 27 0 135 164 220 332 427 729 540 1034 115 311 223 695
264 939 44 259 64 686 50 1088 -13 390 -35 592 -91 839 -170 750 -509 1472
-958 2040 -241 304 -462 514 -537 509 -10 -1 -40 -5 -68 -11z"/>
<path d="M1695 8708 c-53 -19 -120 -75 -242 -202 -519 -536 -969 -1372 -1162
-2157 -84 -340 -171 -973 -171 -1242 0 -280 80 -825 181 -1237 143 -583 373
-1094 720 -1605 144 -211 155 -220 112 -90 -24 72 -26 95 -26 235 -1 200 27
382 98 656 90 343 225 677 475 1173 481 956 1210 2076 1909 2933 89 109 161
202 161 206 0 9 -372 347 -570 518 -381 330 -666 533 -935 665 -242 118 -467
179 -550 147z"/>
<path d="M5105 6050 c-214 -106 -1107 -927 -1675 -1540 -1142 -1232 -1768
-2279 -1710 -2858 24 -235 161 -388 616 -690 754 -500 1564 -781 2419 -842
669 -47 1513 66 2070 277 660 251 1439 724 1648 1003 70 92 92 169 92 315 -1
193 -50 379 -175 662 -219 494 -683 1167 -1215 1763 -627 703 -1765 1798
-1984 1910 -48 24 -38 24 -86 0z"/>
</g>
</svg>
